<svg xmlns="http://www.w3.org/2000/svg" xmlns:xlink="http://www.w3.org/1999/xlink" id="Ebene_1" x="0px" y="0px" viewBox="0 0 319.8 67.4" style="enable-background:new 0 0 319.8 67.4;" xml:space="preserve">
<style type="text/css">
	.st0{fill:#1A171B;}
	.st1{fill:#FFFFFF;}
	.st2{fill:#1D1D1B;}
</style>
<g>
	<g>
		<path class="st0" d="M316.2,20.2c-1.4,0-2.6,1.2-2.6,2.6s1.2,2.6,2.6,2.6c1.4,0,2.6-1.2,2.6-2.6S317.6,20.2,316.2,20.2z"></path>
		<path class="st0" d="M94.5,20.6c-4.3,0-8,1.5-11.1,4.6c-3.1,3.1-4.6,6.8-4.6,11.1c0,0,0,0.1,0,0.1c0,0,0,0,0,0.1v27.2    c0,0.7,0.2,1.2,0.6,1.6c0.4,0.4,1,0.6,1.6,0.6c0.6,0,1.2-0.2,1.6-0.7c0.4-0.4,0.6-0.9,0.6-1.6l0-11.6h11.2c4.3,0,8-1.5,11.1-4.6    c3.1-3.1,4.6-6.8,4.6-11.1c0-4.3-1.5-8-4.6-11.1C102.5,22.1,98.8,20.6,94.5,20.6z M102.4,44.2c-2.2,2.2-4.8,3.3-7.9,3.3H83.4V36.2    c0-3.1,1.1-5.7,3.3-7.9c2.2-2.2,4.8-3.3,7.9-3.3c3.1,0,5.7,1.1,7.9,3.3c2.2,2.2,3.3,4.8,3.3,7.9S104.6,42,102.4,44.2z"></path>
		<path class="st0" d="M305,37.2l6.6-6.6c0.5-0.5,0.7-1,0.7-1.5c0-0.6-0.2-1.1-0.7-1.6c-0.5-0.5-1-0.7-1.6-0.7    c-0.6,0-1.1,0.2-1.5,0.7l-6.6,6.6l-11.8-11.8c-0.5-0.5-1-0.7-1.5-0.7c-0.6,0-1.1,0.2-1.6,0.7c-0.5,0.5-0.7,1-0.7,1.6    c0,0.6,0.2,1.1,0.7,1.5l11.8,11.8L286.9,49c-0.5,0.5-0.7,1-0.7,1.5c0,0.6,0.2,1.2,0.7,1.6c0.5,0.5,1,0.7,1.6,0.7    c0.6,0,1.1-0.2,1.5-0.7l11.8-11.8l11.8,11.8c0.5,0.5,1,0.7,1.5,0.7c0.6,0,1.1-0.2,1.6-0.7c0.5-0.5,0.7-1,0.7-1.6    c0-0.6-0.2-1.1-0.7-1.5L305,37.2z"></path>
		<path class="st0" d="M145.5,36V22.8c0-0.7-0.2-1.2-0.6-1.6c-0.4-0.4-1-0.6-1.6-0.6c-0.6,0-1.2,0.2-1.6,0.7    c-0.4,0.4-0.6,0.9-0.6,1.6l0,13.4c0,3.1-1.1,5.7-3.3,7.9c-2.2,2.2-4.8,3.3-7.9,3.3c-3.1,0-5.7-1.1-7.9-3.3    c-2.2-2.2-3.3-4.8-3.3-7.9l0-13.4c0-0.7-0.2-1.2-0.6-1.6c-0.4-0.4-1-0.6-1.6-0.6c-0.6,0-1.2,0.2-1.6,0.7c-0.4,0.4-0.6,0.9-0.6,1.6    l0,13c0,0.2,0,0.3,0,0.5c0,4.3,1.5,8,4.6,11.1c3.1,3.1,6.7,4.6,11.1,4.6c4.3,0,8-1.5,11.1-4.6c3.1-3.1,4.6-6.8,4.6-11.1    c0-0.1,0-0.1,0-0.2C145.5,36.1,145.5,36,145.5,36z"></path>
		<path class="st0" d="M261,20.9l-27.2,0c-0.6,0-1.2,0.2-1.6,0.6c-0.4,0.4-0.7,1-0.7,1.6c0,0.6,0.2,1.2,0.6,1.6    c0.4,0.4,0.9,0.6,1.6,0.6l11.7,0V50c0,0.7,0.2,1.2,0.6,1.6c0.4,0.4,1,0.7,1.6,0.6c0.6,0,1.2-0.2,1.6-0.7c0.4-0.4,0.6-0.9,0.6-1.6    l0-24.6H261c0.7,0,1.2-0.2,1.6-0.6c0.4-0.4,0.7-1,0.6-1.6c0-0.6-0.2-1.2-0.7-1.6C262.2,21.1,261.7,20.9,261,20.9z"></path>
		<path class="st0" d="M279.1,20.9c-0.1,0-0.3,0-0.4,0c0,0-0.1,0-0.1,0c-2.9,0.6-5.5,2-7.7,4.2c-3.1,3.1-4.6,6.8-4.6,11.1    c0,0.1,0,0.1,0,0.2c0,0,0,0.1,0,0.1v13.2c0,0.7,0.2,1.2,0.6,1.6c0.4,0.4,1,0.6,1.6,0.6c0.6,0,1.2-0.2,1.6-0.7    c0.4-0.4,0.6-0.9,0.6-1.6l0-13.4c0-3.1,1.1-5.7,3.3-7.9c1.6-1.6,3.4-2.6,5.5-3c0.1,0,0.1,0,0.2,0c1-0.3,1.7-1.1,1.7-2.2    C281.3,21.9,280.3,20.9,279.1,20.9z"></path>
		<path class="st0" d="M234.4,47.7c-2.4,0-4.4-2-4.4-4.4V33.2c0-0.2,0-0.4-0.1-0.5l0.1-2.6c0-0.1,0-0.1,0-0.2c0,0,0,0,0-0.1l0-0.1    c0-0.1,0-0.1,0-0.2c-0.2-4.8-4.1-8.6-8.9-8.6h-15.5c-0.1,0-0.2,0-0.3,0h-13H191h-18.9c-4.9,0-8.9,4-8.9,8.9s4,8.9,8.9,8.9h13.4    c2.4,0,4.4,2,4.4,4.4s-2,4.4-4.4,4.4H166h-0.5H160c-3.2,0-3.4-3.4-3.4-4.4V3.3c0-1.2-1-2.2-2.2-2.2C153,1,152,2,152,3.3v40.1    c0,5.2,3.2,8.8,7.7,8.9c0,0,0.1,0,0.1,0h5.6h0.5h19.5c4.9,0,8.9-4,8.9-8.9s-4-8.9-8.9-8.9h-13.4c-2.4,0-4.4-2-4.4-4.4    s2-4.4,4.4-4.4H191h1.2h14.9c0.1,0,0.2,0,0.3,0H221c2.4,0,4.4,2,4.4,4.4l0,0.1c0,2.4-2,4.4-4.4,4.4h-13.4c-4.9,0-8.9,4-8.9,8.9    s4,8.9,8.9,8.9h13.1c0,0,0,0,0,0c2.7,0,5.2-1.3,6.8-3.2c1.6,2,4.1,3.2,6.9,3.2c1.2,0,2.2-1,2.2-2.2S235.7,47.7,234.4,47.7z     M225.1,43.3c0,2.4-2,4.4-4.4,4.4h-13c-2.4,0-4.4-2-4.4-4.4s2-4.4,4.4-4.4H221c1.5,0,3-0.4,4.2-1.1L225.1,43.3z"></path>
	</g>
	<g>
		<circle class="st1" cx="32.3" cy="34.1" r="32.3"></circle>
		<g>
			<path class="st2" d="M30.3,26.4c-1,0-1.8,0.8-1.8,1.8s0.8,1.8,1.8,1.8s1.8-0.8,1.8-1.8S31.3,26.4,30.3,26.4z M30.3,29.1     c-0.5,0-0.8-0.4-0.8-0.8s0.4-0.8,0.8-0.8c0.5,0,0.8,0.4,0.8,0.8S30.8,29.1,30.3,29.1z"></path>
			<path class="st2" d="M35.8,26.4c-1,0-1.8,0.8-1.8,1.8s0.8,1.8,1.8,1.8s1.8-0.8,1.8-1.8S36.8,26.4,35.8,26.4z M35.8,29.1     c-0.5,0-0.8-0.4-0.8-0.8s0.4-0.8,0.8-0.8s0.8,0.4,0.8,0.8S36.2,29.1,35.8,29.1z"></path>
			<path class="st2" d="M53.5,32.2h-2.3c-2.1,0-3.9,1.7-3.9,3.9v3.1c0,0.4-0.3,0.7-0.7,0.7c-0.4,0-0.7-0.3-0.7-0.7v-3.4h0V25.1     C46,18,40.2,12.2,33,12.2S20.1,18,20.1,25.1v10.6h0v5.8c0,0.4-0.3,0.7-0.7,0.7c-0.4,0-0.7-0.3-0.7-0.7V40c0-2.2-1.8-3.9-3.9-3.9     h-3.8c-0.9,0-1.6,0.7-1.6,1.6s0.7,1.6,1.6,1.6h3.8c0.4,0,0.7,0.3,0.7,0.7v1.5c0,2.2,1.8,3.9,3.9,3.9c2.2,0,3.9-1.8,3.9-3.9v-5.8     h2.4v10.2c0,0.8-0.6,1.4-1.4,1.4h-3.1c-0.9,0-1.6,0.7-1.6,1.6s0.7,1.6,1.6,1.6h3.1c2.6,0,4.7-2.1,4.7-4.7V35.7h2.4v15.7     c0,2.6,2.1,4.7,4.7,4.7c0.9,0,1.6-0.7,1.6-1.6s-0.7-1.6-1.6-1.6c-0.8,0-1.4-0.6-1.4-1.4V35.7h2.4v12.5c0,2.2,1.8,3.9,3.9,3.9     c2.2,0,3.9-1.8,3.9-3.9c0-0.4,0.3-0.7,0.7-0.7h2.3c0.9,0,1.6-0.7,1.6-1.6s-0.7-1.6-1.6-1.6h-2.3c-2.2,0-3.9,1.8-3.9,3.9     c0,0.4-0.3,0.7-0.7,0.7c-0.4,0-0.7-0.3-0.7-0.7V35.7h2.4v3.4c0,2.2,1.8,3.9,3.9,3.9c2.2,0,3.9-1.8,3.9-3.9V36     c0-0.3,0.3-0.6,0.6-0.6h2.3c0.9,0,1.6-0.7,1.6-1.6S54.4,32.2,53.5,32.2z M41.1,29.8c-0.6,1.1-1.7,1.8-2.9,1.8H27.9     c-1.6,0-2.6-1.3-2.9-1.8c-1.8-3.5-1.9-7.2-0.1-10.1c1.7-2.8,4.7-4.4,8.1-4.4c3.4,0,6.4,1.7,8.1,4.4     C42.9,22.6,42.9,26.3,41.1,29.8z"></path>
			<path class="st2" d="M30.2,21.6c1.3,0,2.3-1.1,2.3-2.3c0-1.3-1.1-2.3-2.3-2.3c-1.3,0-2.3,1.1-2.3,2.3     C27.8,20.5,28.9,21.6,30.2,21.6z M30.2,17.9c0.7,0,1.3,0.6,1.3,1.3c0,0.7-0.6,1.3-1.3,1.3c-0.7,0-1.3-0.6-1.3-1.3     C28.8,18.5,29.4,17.9,30.2,17.9z"></path>
			<path class="st2" d="M35.8,21.6c1.3,0,2.3-1.1,2.3-2.3c0-1.3-1.1-2.3-2.3-2.3s-2.3,1.1-2.3,2.3C33.5,20.5,34.5,21.6,35.8,21.6z      M35.8,17.9c0.7,0,1.3,0.6,1.3,1.3c0,0.7-0.6,1.3-1.3,1.3c-0.7,0-1.3-0.6-1.3-1.3C34.5,18.5,35.1,17.9,35.8,17.9z"></path>
			<path class="st2" d="M35.3,24.3c0-1.3-1.1-2.3-2.3-2.3s-2.3,1.1-2.3,2.3c0,1.3,1.1,2.3,2.3,2.3S35.3,25.6,35.3,24.3z M33,25.6     c-0.7,0-1.3-0.6-1.3-1.3c0-0.7,0.6-1.3,1.3-1.3c0.7,0,1.3,0.6,1.3,1.3C34.3,25,33.7,25.6,33,25.6z"></path>
			<path class="st2" d="M29.8,24.3c0-1.3-1.1-2.3-2.3-2.3c-1.3,0-2.3,1.1-2.3,2.3c0,1.3,1.1,2.3,2.3,2.3     C28.8,26.6,29.8,25.6,29.8,24.3z M27.5,25.6c-0.7,0-1.3-0.6-1.3-1.3c0-0.7,0.6-1.3,1.3-1.3c0.7,0,1.3,0.6,1.3,1.3     C28.8,25,28.2,25.6,27.5,25.6z"></path>
			<path class="st2" d="M38.5,21.9c-1.3,0-2.3,1.1-2.3,2.3c0,1.3,1.1,2.3,2.3,2.3s2.3-1.1,2.3-2.3C40.9,23,39.8,21.9,38.5,21.9z      M38.5,25.6c-0.7,0-1.3-0.6-1.3-1.3c0-0.7,0.6-1.3,1.3-1.3c0.7,0,1.3,0.6,1.3,1.3C39.9,25,39.3,25.6,38.5,25.6z"></path>
		</g>
	</g>
</g>
</svg>