<?xml version="1.0" encoding="utf-8"?>
<!-- Uploaded to: SVG Repo, www.svgrepo.com, Generator: SVG Repo Mixer Tools -->
<!-- https://www.svgrepo.com/svg/530439/api-interface -->
<svg width="800px" height="800px" viewBox="0 0 1024 1024" class="icon"  version="1.1" xmlns="http://www.w3.org/2000/svg">
    <path d="M432.4 453.5l-17 46.7h34.4z" fill="none" />
    <path d="M725.3 259.7H312.2c-16.5 0-30 13.5-30 30v413.1c0 16.5 13.5 30 30 30h413.1c16.5 0 30-13.5 30-30V289.7c0-16.6-13.5-30-30-30z m-98.8 164.5h25.4V550h-25.4V424.2z m-116.5 0h40.8c15.5 0 25.5 0.6 30.2 1.9 7.2 1.9 13.2 6 18.1 12.3 4.9 6.3 7.3 14.5 7.3 24.5 0 7.7-1.4 14.2-4.2 19.5s-6.4 9.4-10.7 12.4c-4.3 3-8.7 5-13.2 6-6.1 1.2-14.8 1.8-26.4 1.8h-16.6V550H510V424.2z m-90.7 0h26.9L496.5 550h-27.6l-11-28.6h-50.3L397.2 550h-27l49.1-125.8z m229.1 273.3H352.6c-19.4 0-35.1-15.7-35.1-35.1v-295c0-5.5 4.5-10 10-10s10 4.5 10 10v295c0 8.3 6.8 15.1 15.1 15.1h295.8c5.5 0 10 4.5 10 10s-4.4 10-10 10z" fill="none" />
    <path d="M569.4 479.2c3.4-1.3 6-3.4 7.9-6.2 1.9-2.8 2.9-6.1 2.9-9.8 0-4.6-1.3-8.4-4-11.3-2.7-3-6.1-4.8-10.2-5.6-3-0.6-9.1-0.9-18.3-0.9h-12.3v35.7h13.9c10 0.1 16.7-0.6 20.1-1.9z" fill="none" />
    <path d="M648.4 677.5H352.6c-8.3 0-15.1-6.8-15.1-15.1v-295c0-5.5-4.5-10-10-10s-10 4.5-10 10v295c0 19.4 15.7 35.1 35.1 35.1h295.8c5.5 0 10-4.5 10-10s-4.4-10-10-10z" fill="#3D3D3D" />
    <path d="M865 386.5c11 0 20-9 20-20s-9-20-20-20h-69.7v-56.8c0-38.6-31.4-70-70-70h-27.8v-67.3c0-11-9-20-20-20s-20 9-20 20v67.3H611v-67.3c0-11-9-20-20-20s-20 9-20 20v67.3h-46.5v-67.3c0-11-9-20-20-20s-20 9-20 20v67.3H438v-67.3c0-11-9-20-20-20s-20 9-20 20v67.3h-85.8c-38.6 0-70 31.4-70 70v56.8h-69.7c-11 0-20 9-20 20s9 20 20 20h69.7V433h-69.7c-11 0-20 9-20 20s9 20 20 20h69.7v46.5h-69.7c-11 0-20 9-20 20s9 20 20 20h69.7V606h-69.7c-11 0-20 9-20 20s9 20 20 20h69.7v56.8c0 38.6 31.4 70 70 70H343v72.5c0 11 9 20 20 20s20-9 20-20v-72.5h46.5v72.5c0 11 9 20 20 20s20-9 20-20v-72.5H516v72.5c0 11 9 20 20 20s20-9 20-20v-72.5h46.5v72.5c0 11 9 20 20 20s20-9 20-20v-72.5h82.8c38.6 0 70-31.4 70-70V646H865c11 0 20-9 20-20s-9-20-20-20h-69.7v-46.5H865c11 0 20-9 20-20s-9-20-20-20h-69.7V473H865c11 0 20-9 20-20s-9-20-20-20h-69.7v-46.5H865zM755.3 702.7c0 16.5-13.5 30-30 30H312.2c-16.5 0-30-13.5-30-30v-413c0-16.5 13.5-30 30-30h413.1c16.5 0 30 13.5 30 30v413z" fill="#2A988A" />
    <text x="52%" y="45%" text-anchor="middle" fill="#2A988A" font-size="120px" font-weight="bold" >MQTT</text>
    <text x="52%" y="58%" text-anchor="middle" fill="#2A988A" font-size="120px" font-weight="bold" >API</text>
</svg>
