<?xml version="1.0" encoding="UTF-8" standalone="no"?>
<svg
   fill="#2a988a"
   width="801.48865"
   height="566.28259"
   viewBox="0 0 24.044659 16.988478"
   version="1.1"
   id="svg1"
   sodipodi:docname="surplus_charging.svg"
   xml:space="preserve"
   inkscape:version="1.3.1 (91b66b0, 2023-11-16)"
   xmlns:inkscape="http://www.inkscape.org/namespaces/inkscape"
   xmlns:sodipodi="http://sodipodi.sourceforge.net/DTD/sodipodi-0.dtd"
   xmlns="http://www.w3.org/2000/svg"
   xmlns:svg="http://www.w3.org/2000/svg"><defs
     id="defs1" /><sodipodi:namedview
     id="namedview1"
     pagecolor="#ffffff"
     bordercolor="#2A988A"
     borderopacity="0.25"
     inkscape:showpageshadow="2"
     inkscape:pageopacity="0.0"
     inkscape:pagecheckerboard="0"
     inkscape:deskcolor="#d1d1d1"
     showgrid="false"
     inkscape:zoom="0.67175144"
     inkscape:cx="315.59292"
     inkscape:cy="452.54834"
     inkscape:window-width="1392"
     inkscape:window-height="1027"
     inkscape:window-x="2255"
     inkscape:window-y="25"
     inkscape:window-maximized="0"
     inkscape:current-layer="SVGRepo_iconCarrier"
     showguides="false" /><g
     id="SVGRepo_bgCarrier"
     stroke-width="0" /><g
     id="SVGRepo_tracerCarrier"
     stroke-linecap="round"
     stroke-linejoin="round" /><g
     id="SVGRepo_iconCarrier"
     transform="matrix(0.69041797,0,0,0.69041797,7.2391873,5.1436965)"><path
       style="fill:none;stroke:#2a988a;stroke-width:1.54826;stroke-linecap:round;stroke-linejoin:round;stroke-dasharray:none"
       d="M 7.2492236,5.0911633 H 1.3335584 v 9.2277407 h 3.4091903"
       id="path11"
       sodipodi:nodetypes="cccc" /><path
       style="fill:none;stroke:#2a988a;stroke-width:1.54826;stroke-linecap:round;stroke-linejoin:round;stroke-dasharray:none"
       d="M 10.752565,5.1674244 7.7609798,9.9743268 H 11.832802 L 8.5676613,14.872037"
       id="path12"
       sodipodi:nodetypes="cccc" /><path
       style="fill:none;stroke:#2a988a;stroke-width:1.54826;stroke-linecap:round;stroke-linejoin:round;stroke-dasharray:none"
       d="m 14.904509,5.05275 h 4.878503 v 9.22308 h -7.202513"
       id="path13"
       sodipodi:nodetypes="cccc" /><path
       style="fill:none;stroke:#2a988a;stroke-width:1.54826;stroke-linecap:round;stroke-linejoin:round;stroke-dasharray:none"
       d="M 23.002681,7.1846941 V 12.068989"
       id="path14"
       sodipodi:nodetypes="cc" /></g><g
     style="fill:#2a988a;stroke:#2a988a;stroke-width:0.4"
     id="g1"
     transform="matrix(0.97882289,0,0,0.97882289,-1.4278919,-2.14716)"><g
       id="SVGRepo_bgCarrier-2"
       stroke-width="0" /><g
       id="SVGRepo_tracerCarrier-4"
       stroke-linecap="round"
       stroke-linejoin="round" /><g
       id="SVGRepo_iconCarrier-8"><path
         d="M 9.5687219,2.4137697 C 9.8443072,2.4313017 10.049046,2.668673 10.035969,2.9445055 L 9.9631805,4.4798538 C 9.9316104,5.1457723 8.9336281,5.0822831 8.965198,4.4163646 L 9.037986,2.8810164 C 9.0510627,2.6051839 9.2931366,2.3962376 9.5687219,2.4137697 Z M 4.1250863,9.6195674 C 4.1075542,9.895153 3.8693634,10.111765 3.5943505,10.086814 L 2.0454545,9.9462879 C 1.3815152,9.886051 1.4450043,8.8880689 2.1089436,8.9483057 l 1.548896,0.1405259 c 0.2750129,0.024951 0.4847787,0.2551505 0.4672467,0.5307358 z M 14.740413,5.0028204 c 0.182401,0.2072485 0.162307,0.5231102 -0.04489,0.7055737 l -1.12165,0.9701352 C 13.0729,7.1189446 12.412277,6.3674862 12.913249,5.9270708 l 1.12159,-0.9691372 c 0.207249,-0.182401 0.52311,-0.1623066 0.705574,0.044887 z M 5.3616351,13.231565 c 0.182401,0.208843 0.1623067,0.527133 -0.044887,0.711 L 4.100326,15.038021 C 3.6011157,15.462343 2.955476,14.732369 3.439639,14.28756 L 4.6560615,13.186334 C 4.86331,13.002531 5.1893322,13.029553 5.2938973,13.160445 Z M 5.8105668,6.1846473 C 5.6033183,6.3670482 5.2874567,6.3469539 5.1049932,6.1397604 L 4.0139913,4.9087926 C 3.5569635,4.4075043 4.3251203,3.731238 4.7644519,4.2481058 l 1.0910652,1.2299698 c 0.1830598,0.2074047 0.1629165,0.5240368 -0.04495,0.7065717 z"
         id="path1-3"
         sodipodi:nodetypes="ssssssssssssccccccccccccccccccc"
         style="stroke-width:0;stroke-dasharray:none" /><path
         id="path2"
         style="fill:none;stroke-width:1.09207;stroke-linecap:round;stroke-dasharray:none"
         d="m 7.3849588,12.873167 c -0.514587,-0.309404 -0.942754,-0.747872 -1.239716,-1.270619 m 0,0 c -0.288295,-0.50749 -0.452931,-1.094411 -0.452931,-1.719785 m 0,0 c 0,-0.8748244 0.322173,-1.6744013 0.854344,-2.2865563 m 0,0 c 0.639275,-0.7353571 1.581582,-1.2002598 2.632473,-1.2002598 m 0,0 c 0.9931912,10e-8 1.8893932,0.4152527 2.5244642,1.0816108 m 0,0 c 0.296962,0.311592 0.536826,0.6780893 0.702809,1.0827092"
         sodipodi:nodetypes="cccccccccccc" /></g></g></svg>
