<svg xmlns="http://www.w3.org/2000/svg" width="122.66797mm" height="27.36894mm" viewBox="0 0 347.72023 77.58124"><defs><style>.a{fill:#1d1d1b;}.b{fill:#fff;}.c{fill:none;}</style></defs><circle class="a" cx="39.2225" cy="38.16176" r="33.37243"/><path class="b" d="M37.19239,30.1884A1.90724,1.90724,0,1,0,39.1,32.096,1.90983,1.90983,0,0,0,37.19239,30.1884Zm0,2.78435a.87712.87712,0,1,1,.87744-.87679A.87815.87815,0,0,1,37.19239,32.97275Z"/><path class="b" d="M42.81745,30.1884A1.90724,1.90724,0,1,0,44.725,32.096,1.90927,1.90927,0,0,0,42.81745,30.1884Zm0,2.78435a.87712.87712,0,1,1,.87745-.87679A.87759.87759,0,0,1,42.81745,32.97275Z"/><path class="b" d="M61.14281,36.1221H58.72936a3.991,3.991,0,0,0-3.98617,3.98683v3.20046a.6838.6838,0,0,1-1.3676,0V39.7875h.00991V28.85892a13.38054,13.38054,0,0,0-26.76107,0V39.7875h.01966v5.974a.68381.68381,0,0,1-1.36761,0v-1.574a4.04369,4.04369,0,0,0-4.03924-4.03925H17.30218a1.67756,1.67756,0,0,0,0,3.35512h3.93506a.68462.68462,0,0,1,.68413.68413v1.574a4.03892,4.03892,0,0,0,8.07784,0v-5.974h2.52354V50.37283a1.468,1.468,0,0,1-1.4659,1.4659H27.90357a1.67756,1.67756,0,0,0,0,3.35512h3.15328a4.8262,4.8262,0,0,0,4.821-4.821V39.7875h2.46588V56.01886a4.83122,4.83122,0,0,0,4.8256,4.82626,1.67756,1.67756,0,0,0,0-3.35512,1.47258,1.47258,0,0,1-1.47049-1.47114V39.7875h2.46523V52.75483a4.03892,4.03892,0,0,0,8.07784,0,.68448.68448,0,0,1,.68347-.68413h2.36169a1.67756,1.67756,0,1,0,0-3.35511H52.9254a4.04354,4.04354,0,0,0-4.03859,4.03924.6838.6838,0,0,1-1.3676,0V39.7875h2.50126v3.52189a4.03892,4.03892,0,0,0,8.07784,0V40.10893a.63191.63191,0,0,1,.63105-.63171h2.41345a1.67756,1.67756,0,0,0,0-3.35512ZM48.31146,33.72044a3.38357,3.38357,0,0,1-2.98553,1.842H34.69113a3.57659,3.57659,0,0,1-2.9816-1.83679c-1.89315-3.62772-1.924-7.4481-.08453-10.48278a9.9809,9.9809,0,0,1,16.75526.017C50.221,26.29725,50.19544,30.11173,48.31146,33.72044Z"/><path class="b" d="M37.04048,25.17559a2.42372,2.42372,0,1,0-2.4234-2.42341A2.42639,2.42639,0,0,0,37.04048,25.17559Zm0-3.81169a1.388,1.388,0,1,1-1.38765,1.38828A1.38975,1.38975,0,0,1,37.04048,21.3639Z"/><path class="b" d="M42.88561,25.17559a2.42372,2.42372,0,1,0-2.42341-2.42341A2.4264,2.4264,0,0,0,42.88561,25.17559Zm0-3.81169A1.388,1.388,0,1,1,41.498,22.75218,1.38975,1.38975,0,0,1,42.88561,21.3639Z"/><path class="b" d="M42.38708,27.97087a2.42372,2.42372,0,1,0-2.424,2.4234A2.42694,2.42694,0,0,0,42.38708,27.97087Zm-2.424,1.38765a1.388,1.388,0,1,1,1.38828-1.38765A1.38948,1.38948,0,0,1,39.96305,29.35852Z"/><path class="b" d="M36.67173,27.97087a2.42372,2.42372,0,1,0-2.4234,2.4234A2.4264,2.4264,0,0,0,36.67173,27.97087Zm-2.4234,1.38765A1.388,1.388,0,1,1,35.636,27.97087,1.38961,1.38961,0,0,1,34.24833,29.35852Z"/><path class="b" d="M45.67839,25.54684a2.42372,2.42372,0,1,0,2.424,2.424A2.42641,2.42641,0,0,0,45.67839,25.54684Zm0,3.81168a1.388,1.388,0,1,1,1.38828-1.38765A1.38948,1.38948,0,0,1,45.67839,29.35852Z"/><path class="c" d="M233.3643,43.34475H222.02592a4.83643,4.83643,0,0,0,0,9.67285h15.59034a4.84167,4.84167,0,0,0,4.83691-4.83593V41.99124a9.2791,9.2791,0,0,1-4.83691,1.35351Z"/><path class="c" d="M104.75981,29.1719A11.93654,11.93654,0,0,0,92.83647,41.09475V53.0176h11.92334a11.92285,11.92285,0,1,0,0-23.8457Z"/><path d="M104.75981,24.6719A16.44178,16.44178,0,0,0,88.33647,41.09475V69.44143a2.25,2.25,0,0,0,4.5,0V57.5176h11.92334a16.42285,16.42285,0,1,0,0-32.8457Zm0,28.3457H92.83647V41.09475A11.92334,11.92334,0,1,1,104.75981,53.0176Z"/><path d="M156.78374,24.6719a2.25026,2.25026,0,0,0-2.25,2.25V41.09475a11.92334,11.92334,0,0,1-23.84668,0V26.9219a2.25,2.25,0,1,0-4.5,0V41.09475a16.42334,16.42334,0,0,0,32.84668,0V26.9219A2.25027,2.25027,0,0,0,156.78374,24.6719Z"/><path d="M280.11235,24.6719H251.76567a2.25,2.25,0,0,0,0,4.5H263.6895V55.2676a2.25,2.25,0,1,0,4.5,0V29.1719h11.92285a2.25,2.25,0,0,0,0-4.5Z"/><path d="M301.25688,24.6719a16.4422,16.4422,0,0,0-16.42383,16.42285V55.2676a2.25,2.25,0,1,0,4.5,0V41.09475A11.93665,11.93665,0,0,1,301.25688,29.1719a2.25,2.25,0,0,0,0-4.5Z"/><path d="M309.13188,56.85842a2.24918,2.24918,0,0,0,3.18164,0l12.58258-12.582,12.58246,12.582a2.24976,2.24976,0,1,0,3.18164-3.18164l-12.5824-12.582,6.91346-6.91314A2.24976,2.24976,0,1,0,331.80962,31l-6.91352,6.9132L312.31352,25.33108a2.24976,2.24976,0,0,0-3.18164,3.18164L321.7144,41.09481l-12.58252,12.582A2.24917,2.24917,0,0,0,309.13188,56.85842Z"/><path d="M174.63579,57.5176h24.73974a9.33643,9.33643,0,1,0,0-18.67285H185.20219a4.83643,4.83643,0,0,1,0-9.67285h52.41407a4.83643,4.83643,0,1,1,0,9.67285H222.02592c-5.148,0-8.33642,4.18848-8.33642,9.33692,0,5.14746,3.18847,9.33593,8.33642,9.33593h15.59034a9.31355,9.31355,0,0,0,7.08691-3.27423,9.31355,9.31355,0,0,0,7.08691,3.27423,2.25,2.25,0,0,0,0-4.5,4.84167,4.84167,0,0,1-4.83691-4.83593V34.00784a9.34723,9.34723,0,0,0-9.33691-9.33594H185.20219a9.33643,9.33643,0,0,0,0,18.67285h14.17334a4.83643,4.83643,0,1,1,0,9.67285H174.63579a4.87167,4.87167,0,0,1-4.8667-4.86621V7.07913a2.25,2.25,0,1,0-4.5,0V48.15139A9.37722,9.37722,0,0,0,174.63579,57.5176Zm67.81738-9.33593a4.84167,4.84167,0,0,1-4.83691,4.83593H222.02592a4.83643,4.83643,0,0,1,0-9.67285h15.59034a9.2791,9.2791,0,0,0,4.83691-1.35351Z"/><circle cx="339.12016" cy="26.8742" r="2.75"/></svg>