<?xml version="1.0" encoding="UTF-8" standalone="no"?>
<svg
   version="1.1"
   id="CLOUD_NETWORK"
   x="0px"
   y="0px"
   width="676"
   height="581"
   viewBox="0 0 1521 871.5"
   enable-background="new 0 0 1800 200"
   xml:space="preserve"
   sodipodi:docname="rest-api.svg"
   inkscape:version="1.3.1 (91b66b0, 2023-11-16)"
   xmlns:inkscape="http://www.inkscape.org/namespaces/inkscape"
   xmlns:sodipodi="http://sodipodi.sourceforge.net/DTD/sodipodi-0.dtd"
   xmlns="http://www.w3.org/2000/svg"
   xmlns:svg="http://www.w3.org/2000/svg"><defs
   id="defs1"><rect
     x="109"
     y="535"
     width="666"
     height="151"
     id="rect31" /></defs><sodipodi:namedview
   id="namedview1"
   pagecolor="#ffffff"
   bordercolor="#26998a"
   borderopacity="0.25"
   inkscape:showpageshadow="2"
   inkscape:pageopacity="0.0"
   inkscape:pagecheckerboard="0"
   inkscape:deskcolor="#d1d1d1"
   showgrid="false"
   inkscape:zoom="1"
   inkscape:cx="52"
   inkscape:cy="295"
   inkscape:window-width="2320"
   inkscape:window-height="1387"
   inkscape:window-x="359"
   inkscape:window-y="25"
   inkscape:window-maximized="0"
   inkscape:current-layer="CLOUD_NETWORK"><inkscape:page
     x="0"
     y="0"
     width="1521"
     height="871.5"
     id="page1"
     margin="16.5 90 24 191.25"
     bleed="0" /></sodipodi:namedview>

	
<path
   style="fill:none;stroke:#26998a;stroke-width:67.5;stroke-linecap:round;stroke-dasharray:none"
   d="m 1418.1349,287.62144 c 85.567,134.87621 52.912,312.81501 -91.8838,347.54839 C 1221.2428,660.35905 887.9289,661.1233 620.42651,659.5956 391.20603,658.28652 216.0953,673.2595 132.71578,621.54084 30.90143,552.95105 35.86932,385.014 133.38765,310.17003 262.0498,211.42361 349.23098,290.83699 364.49877,249.6069 404.45614,178.57714 513.21542,70.904941 700.41916,156.12087 725.11821,168.36232 732.81024,-82.2139 949.5769,-67.0127"
   id="path2"
   sodipodi:nodetypes="csccsccc" /><g
   id="g30"
   transform="matrix(1.1806955,0,0,1.1806955,249.46678,-1369.9002)"><circle
     style="fill:none;stroke:#26998a;stroke-width:57.972;stroke-dasharray:none"
     id="path15"
     cx="811.21545"
     cy="1208.0203"
     r="124.30138" /><rect
     style="fill:none;stroke:#26998a;stroke-width:59.001;stroke-linejoin:round;stroke-dasharray:none;paint-order:markers fill stroke"
     id="rect20"
     width="22.555954"
     height="56.975986"
     x="804.20898"
     y="1023.3924" /><rect
     style="fill:none;stroke:#26998a;stroke-width:59.001;stroke-linejoin:round;stroke-dasharray:none;paint-order:markers fill stroke"
     id="rect20-4"
     width="22.555954"
     height="56.975986"
     x="802.80145"
     y="1334.8684" /><rect
     style="fill:none;stroke:#26998a;stroke-width:59.001;stroke-linejoin:round;stroke-dasharray:none;paint-order:markers fill stroke"
     id="rect20-0"
     width="22.555954"
     height="56.975986"
     x="-1218.6605"
     y="628.06519"
     transform="rotate(-90)" /><rect
     style="fill:none;stroke:#26998a;stroke-width:59.001;stroke-linejoin:round;stroke-dasharray:none;paint-order:markers fill stroke"
     id="rect20-0-1"
     width="22.555954"
     height="56.975986"
     x="-1219.3215"
     y="938.48969"
     transform="rotate(-90)" /><rect
     style="fill:none;stroke:#26998a;stroke-width:59.001;stroke-linejoin:round;stroke-dasharray:none;paint-order:markers fill stroke;image-rendering:auto"
     id="rect20-0-3"
     width="22.555954"
     height="56.975986"
     x="262.67398"
     y="-1613.1266"
     transform="rotate(135.04928)" /><rect
     style="fill:none;stroke:#26998a;stroke-width:59.001;stroke-linejoin:round;stroke-dasharray:none;paint-order:markers fill stroke;image-rendering:auto"
     id="rect20-0-3-9"
     width="22.555954"
     height="56.975986"
     x="263.29892"
     y="-1302.1481"
     transform="rotate(135.04928)" /><rect
     style="fill:none;stroke:#26998a;stroke-width:59.001;stroke-linejoin:round;stroke-dasharray:none;paint-order:markers fill stroke;image-rendering:auto"
     id="rect30"
     width="22.555954"
     height="56.975986"
     x="-1440.5507"
     y="-150.84778"
     transform="rotate(-134.95072)" /><rect
     style="fill:none;stroke:#26998a;stroke-width:59.001;stroke-linejoin:round;stroke-dasharray:none;paint-order:markers fill stroke;image-rendering:auto"
     id="rect30-2"
     width="22.555954"
     height="56.975986"
     x="-1441.5487"
     y="-462.80835"
     transform="rotate(-134.95072)" /></g><text
   xml:space="preserve"
   transform="matrix(2.25,0,0,2.25,-191.25,-306.75)"
   id="text30"
   style="white-space:pre;shape-inside:url(#rect31);display:inline;fill:none;stroke:#26998a;stroke-width:30.961;stroke-linecap:round;stroke-linejoin:round;stroke-dasharray:none;paint-order:markers fill stroke" /><g
   id="text32"
   style="font-size:339.852px;fill:none;stroke:#26998a;stroke-width:22.3627;stroke-linecap:round;stroke-linejoin:round;paint-order:markers fill stroke"
   aria-label="{REST}"
   transform="translate(-276.75,-243)"><g
     id="g50"
     transform="translate(-4.5,67.5)"><path
       style="fill:#26998a"
       d="m 585.19318,1219.6327 h -24.8915 c -19.80257,0 -35.89908,-5.5315 -48.28952,-16.5944 -12.27981,-10.9522 -18.41971,-26.8274 -18.41971,-47.6257 v -24.7256 c 0,-18.6963 -4.5911,-33.2993 -13.7733,-43.809 -9.1822,-10.6204 -23.23207,-15.9306 -42.14961,-15.9306 h -8.46311 v -25.8871 h 8.46311 c 18.91754,0 32.96741,-5.2549 42.14961,-15.7646 9.1822,-10.6204 13.7733,-25.2787 13.7733,-43.975 v -24.7256 c 0,-20.79823 6.1399,-36.67348 18.41971,-47.62574 12.39044,-11.06289 28.48695,-16.59433 48.28952,-16.59433 h 24.8915 v 22.90018 h -18.91754 c -15.04553,0 -25.99779,3.48481 -32.85678,10.45443 -6.74837,6.96962 -10.12255,18.19845 -10.12255,33.6865 v 29.04006 c 0,15.3775 -4.25921,28.3211 -12.77764,38.8308 -8.51842,10.3991 -20.35571,18.6409 -35.51187,24.7255 v 3.9827 c 15.15616,6.0846 26.99345,14.3818 35.51187,24.8915 8.51843,10.3991 12.77764,23.2874 12.77764,38.6648 v 29.0401 c 0,15.488 3.37418,26.7168 10.12255,33.6865 6.85899,6.9696 17.81125,10.4544 32.85678,10.4544 h 18.91754 z"
       id="path48"
       sodipodi:nodetypes="cscsscsccscsscsccscssccccsscscc" /><path
       style="fill:#26998a;paint-order:stroke fill markers"
       d="m 824.60548,1181.5829 h -42.64744 l -82.63979,-98.2385 h -46.2982 v 98.2385 H 620.16326 V 934.49323 h 69.19838 c 14.93491,0 27.38066,0.99566 37.33726,2.98698 9.9566,1.88069 18.91754,5.31019 26.88282,10.28849 8.96094,5.64207 15.93056,12.77764 20.90886,21.40669 5.08893,8.51843 7.6334,19.36001 7.6334,32.52491 0,17.8113 -4.48047,32.7462 -13.44141,44.8047 -8.96094,11.9479 -21.29606,20.9642 -37.00537,27.0488 z M 747.7737,1004.0235 c 0,-7.0803 -1.27223,-13.3308 -3.81669,-18.7516 -2.43384,-5.53145 -6.52711,-10.17786 -12.27981,-13.93924 -4.75705,-3.20824 -10.39912,-5.42082 -16.92622,-6.63774 -6.52711,-1.32755 -14.21582,-1.99132 -23.06613,-1.99132 h -38.6648 v 93.2602 h 33.18867 c 10.39912,0 19.47069,-0.885 27.21471,-2.6551 7.74402,-1.8807 14.32644,-5.3102 19.74726,-10.2885 4.9783,-4.6464 8.62905,-9.9566 10.95226,-15.9306 2.43383,-6.0846 3.65075,-13.7733 3.65075,-23.0661 z m 271.4833,177.5594 H 856.46659 V 934.49323 H 1019.257 v 29.20603 H 889.32338 v 67.70494 H 1019.257 v 29.206 H 889.32338 v 91.7667 H 1019.257 Z m 231.6569,-70.5259 c 0,9.6247 -2.2679,19.1387 -6.8036,28.5422 -4.4252,9.4035 -10.6757,17.3688 -18.7516,23.8959 -8.8503,7.0802 -19.1941,12.6116 -31.0314,16.5943 -11.7267,3.9827 -25.8872,5.974 -42.4815,5.974 -17.8113,0 -33.8525,-1.6594 -48.1236,-4.9783 -14.1605,-3.3189 -28.5976,-8.2419 -43.3112,-14.769 v -41.154 h 2.3232 c 12.501,10.3991 26.9381,18.4197 43.3112,24.0618 16.3731,5.6421 31.7505,8.4631 46.1322,8.4631 20.3557,0 36.1757,-3.8167 47.4598,-11.45 11.3948,-7.6334 17.0922,-17.8113 17.0922,-30.5336 0,-10.9523 -2.7104,-19.0282 -8.1312,-24.2278 -5.3102,-5.1995 -13.4414,-9.2375 -24.3937,-12.1138 -8.2971,-2.2126 -17.3134,-4.038 -27.0488,-5.4762 -9.6247,-1.4381 -19.8578,-3.2635 -30.6995,-5.4761 -21.9045,-4.6464 -38.167,-12.5564 -48.7873,-23.7299 -10.5098,-11.2841 -15.7646,-25.9425 -15.7646,-43.975 0,-20.68758 8.7396,-37.6138 26.219,-50.77864 17.4794,-13.27547 39.6605,-19.9132 66.5433,-19.9132 17.3687,0 33.2993,1.65943 47.7917,4.9783 14.4924,3.31887 27.3253,7.41214 38.4988,12.27981 v 38.83073 h -2.3232 c -9.4035,-7.96527 -21.7939,-14.54769 -37.1713,-19.74724 -15.2668,-5.31019 -30.9208,-7.96529 -46.9619,-7.96529 -17.59,0 -31.7505,3.65076 -42.4815,10.95227 -10.6204,7.30151 -15.9306,16.70496 -15.9306,28.21036 0,10.2885 2.6551,18.3644 7.9653,24.2277 5.3102,5.8633 14.6583,10.3438 28.0444,13.4414 7.0803,1.5489 17.1475,3.4296 30.2017,5.6421 13.0542,2.2126 24.1171,4.4805 33.1887,6.8037 18.3644,4.8677 32.193,12.2245 41.4858,22.0705 9.2928,9.8459 13.9392,23.6192 13.9392,41.3199 z m 229.0019,-147.35774 h -88.2819 v 217.88364 h -32.8568 V 963.69926 h -88.2819 v -29.20603 h 209.4206 z"
       id="path49"
       sodipodi:nodetypes="cccccccscccscccscccsccscccscccccccccccccscccsccccsscscccccscssccccscsscscssccccccccc" /><path
       style="fill:#26998a"
       d="m 1671.4339,1072.0724 h -8.4631 c -18.9176,0 -32.9675,5.3102 -42.1497,15.9306 -9.1822,10.5097 -13.7733,25.1127 -13.7733,43.809 v 24.7256 c 0,20.7983 -6.1952,36.6735 -18.5856,47.6257 -12.2798,11.0629 -28.321,16.5944 -48.1236,16.5944 h -24.8915 v -22.9002 h 18.9176 c 15.0455,0 25.9425,-3.4848 32.6908,-10.4544 6.859,-6.9697 10.2885,-18.1985 10.2885,-33.6865 v -29.0401 c 0,-15.3774 4.2592,-28.2657 12.7776,-38.6648 8.5185,-10.5097 20.3558,-18.8069 35.5119,-24.8915 v -3.9827 c -15.1561,-6.0846 -26.9934,-14.3264 -35.5119,-24.7255 -8.5184,-10.5097 -12.7776,-23.4533 -12.7776,-38.8308 v -29.04006 c 0,-15.48805 -3.4295,-26.71688 -10.2885,-33.6865 -6.7483,-6.96962 -17.6453,-10.45443 -32.6908,-10.45443 h -18.9176 v -22.90018 h 24.8915 c 19.8026,0 35.8438,5.53144 48.1236,16.59433 12.3904,10.95226 18.5856,26.82751 18.5856,47.62574 v 24.7256 c 0,18.6963 4.5911,33.3546 13.7733,43.975 9.1822,10.5097 23.2321,15.7646 42.1497,15.7646 h 8.4631 z"
       id="path50"
       sodipodi:nodetypes="cscsscsccscssccccsscsccscsscscc" /></g></g><text
   xml:space="preserve"
   style="font-size:27px;fill:#26998a;stroke:#26998a;stroke-width:22.3628;stroke-linecap:round;stroke-linejoin:round;stroke-dasharray:none;paint-order:stroke fill markers"
   x="1918.4031"
   y="1120.3683"
   id="text48"><tspan
     sodipodi:role="line"
     id="tspan48"
     style="stroke-width:22.3628"
     x="1918.4031"
     y="1120.3683"> </tspan></text></svg>
